<svg width="170" height="48" viewBox="0 0 170 48" fill="none" xmlns="http://www.w3.org/2000/svg">
<path fill-rule="evenodd" clip-rule="evenodd" d="M51.0135 45.5045C46.1857 45.5045 41.5679 42.8009 38.5781 39.1079C35.1711 34.9106 33.5113 29.4858 33.5113 24.1209C33.5113 18.9659 35.0362 13.7801 38.1891 9.67089C41.298 5.63667 45.9758 2.75231 51.1775 2.75231C55.9603 2.75231 60.5482 5.48765 63.493 9.13299C66.8858 13.3321 68.5748 18.771 68.5748 24.1368C68.5748 29.2759 67.0349 34.4617 63.896 38.5709C60.8181 42.5743 56.1693 45.5045 51.0135 45.5045ZM2.49951 3.63411H17.0419V4.0512H13.47L24.3206 33.7581L33.4822 4.0512H29.8803V3.63411H37.727V4.0512H34.2592L21.3467 45.1147L6.32627 4.0512H2.49951V3.63411ZM100.409 2.91632V17.1873H100.08C99.4675 14.3779 98.6005 11.6435 97.0915 9.16297C95.2985 6.26362 92.4437 3.00715 88.7219 3.00715C80.1732 3.00715 79.3962 18.324 79.3962 24.1667C79.3962 29.3976 79.8143 34.7915 81.7122 39.6926C83.0422 43.1298 84.9701 44.8176 88.5428 44.8176C91.3818 44.8176 94.4016 43.3829 95.9106 40.9165C96.2995 40.2737 96.3295 39.5576 96.3295 38.8257V27.7962H92.5936V27.3641H106.269V27.7962H103.07V44.2938H102.788C101.98 42.949 100.709 42.0672 99.0812 42.0672C97.8994 42.0672 96.7485 42.4861 95.7192 43.054L94.7923 43.5619C92.6995 44.4886 90.6957 45.1597 88.3797 45.1597C77.769 45.1597 72.1193 33.848 72.1193 24.4648C72.1193 17.6053 74.7351 10.2679 80.2949 5.97968C82.7908 4.05119 85.8097 2.63239 89.0226 2.63239C90.2785 2.63239 91.5185 3.02038 92.6845 3.4842L93.5373 3.81311C94.5092 4.172 95.5702 4.51502 96.6153 4.51502C97.9161 4.51502 99.0821 3.6632 100.083 2.91632H100.409ZM104.49 3.63411H119.077V4.05208H115.206V35.7174C115.206 40.6775 120.317 43.6968 124.785 43.6968C129.597 43.6968 133.647 40.3504 133.647 35.4335V4.0512H129.075V3.63323H166.724V18.3222H166.44C166.006 14.437 165.258 10.4469 162.583 7.41349C159.879 4.35012 156.201 4.0512 152.42 4.0512H148.341V22.9402C149.176 23.0292 150.029 23.0892 150.882 23.0892C156.008 23.0892 157.338 19.5629 157.562 15.1989H157.936V31.7705H157.562C156.919 27.8112 155.171 23.5671 150.522 23.5671C149.79 23.5671 149.073 23.6121 148.341 23.6721V43.8749H154.453C157.623 43.8749 160.775 42.5002 163.018 40.2895C164.93 38.4069 166.262 35.9564 166.725 33.311C166.978 31.8313 167.098 30.3226 167.173 28.8279H167.502V44.2938H138.074V43.8749H141.497V4.0512H134.262V35.5525C134.262 42.0663 128.074 44.9507 122.276 44.9507C115.716 44.9507 108.48 41.7683 108.48 34.266V4.0512H104.491L104.49 3.63411Z" fill="#1A1A1A"/>
<path fill-rule="evenodd" clip-rule="evenodd" d="M61.1912 24.1209C61.1912 18.1881 59.0692 3.36426 51.0435 3.36426C42.9879 3.36426 40.895 18.1732 40.895 24.1209C40.895 30.0677 43.0029 44.8916 51.0435 44.8916C59.0692 44.8907 61.1912 30.0536 61.1912 24.1209Z" fill="white"/>
</svg>
