<svg width="172" height="40" viewBox="0 0 172 40" fill="none" xmlns="http://www.w3.org/2000/svg">
<g clip-path="url(#clip0_73_143)">
<path d="M35.0121 34.4014C35.0121 37.0978 32.7555 39.2864 31.0561 39.2864H11.8403L36.0098 0.782166H3.69439V7.16295H5.35247C5.35247 4.46656 7.09999 2.28474 8.80623 2.28474H25.4077L1.09375 40.7822H36.1542V34.4014H35.0121Z" fill="#1A1A1A"/>
<path d="M76.946 37.6672L58.2461 0.782166L41.1081 37.6947C40.8053 38.5043 39.1541 39.5266 36.8149 39.5266V40.7753H45.9378V39.5266C44.2453 39.5266 42.429 38.6895 42.8693 37.6878L46.9905 28.7753H62.8007L67.2933 37.6672C67.8025 38.566 65.5252 39.5334 63.1791 39.5334V40.7822H82.1679L82.1748 39.5334C79.2989 39.5266 77.5445 38.6346 76.946 37.6672ZM47.6785 27.3345L54.5172 12.3636L62.154 27.3345H47.6785Z" fill="#1A1A1A"/>
<path d="M84.3486 2.3259C87.1282 2.3259 89.4261 3.03946 89.4261 3.90395C89.4261 10.765 89.4123 37.6261 89.4261 37.6261C89.4261 38.5455 87.1626 39.5678 84.3762 39.5678L84.3693 40.7753H102.959V39.6501C100.2 39.6501 97.9642 38.5523 97.9642 37.6329V1.98971H103.324C108.484 1.98971 112.667 6.26416 112.667 11.1149C112.667 15.9657 108.484 19.9039 103.317 19.9039H99.6085C99.6085 19.9039 112.171 38.8748 112.192 38.8748C112.687 39.5952 112.935 40.7822 112.935 40.7822H126.482V39.6569C123.874 39.6569 122.512 38.5798 121.755 37.6329L109.66 21.8937C115.467 21.5094 119.96 16.8302 119.96 11.2727C119.96 5.46827 114.958 0.782166 108.786 0.782166H84.3486V2.3259Z" fill="#1A1A1A"/>
<path d="M167.872 37.6672L149.172 0.782166L132.034 37.6947C131.732 38.5043 130.087 39.5678 127.741 39.5678V40.7753H136.864V39.6501C135.172 39.6501 133.362 38.6895 133.796 37.6878L137.917 28.7753H153.727L158.22 37.6672C158.736 38.566 156.451 39.5746 154.105 39.5746V40.7822H173.094L173.101 39.6158C170.225 39.6158 168.471 38.6346 167.872 37.6672ZM138.598 27.3345L145.437 12.3636L153.073 27.3345H138.598Z" fill="#1A1A1A"/>
</g>
<defs>
<clipPath id="clip0_73_143">
<rect width="172" height="40" fill="white"/>
</clipPath>
</defs>
</svg>
