<svg width="352" height="48" viewBox="0 0 352 48" fill="none" xmlns="http://www.w3.org/2000/svg">
<g clip-path="url(#clip0_73_183)">
<path d="M0 45.8685V47.388H42.5737V43.5829H7.42403L42.3382 2.41479L42.3269 0.611978H1.64349V4.41644H34.9304L0 45.8685ZM82.8868 0.275908L60.695 47.388H65.4516L72.9235 31.4928H95.4103L102.882 47.388H107.639L85.4469 0.275908H82.8868ZM93.6299 27.688H74.7014L84.1322 7.50371L93.6299 27.688ZM134.101 43.5832V0.611978H129.568V47.388H157.417V43.5829L134.101 43.5832ZM202.715 0.00634766C188.505 0.00634766 177.374 10.5452 177.374 24C177.374 37.4548 188.505 47.9937 202.715 47.9937C217.003 47.9937 228.194 37.4548 228.194 24C228.197 10.5452 217.003 0.00634766 202.715 0.00634766ZM202.855 43.8528C191.264 43.8528 182.183 35.1329 182.183 24C182.183 12.8671 191.264 4.14687 202.855 4.14687C214.368 4.14687 223.387 12.8671 223.387 24C223.387 35.1329 214.368 43.8528 202.855 43.8528H202.855ZM273.698 24.1531C279.314 21.9023 282.16 18.1158 282.16 12.8875C282.16 5.20259 276.153 0.61409 266.089 0.61409H253.547V47.388H258.08V25.364H264.014C269.573 25.364 271.285 26.1593 276.796 34.6005L285.157 47.3902H290.482L279.387 30.8414C277.298 27.7865 275.611 25.4534 273.698 24.1531ZM258.078 4.41644H265.326C273.079 4.41644 277.349 7.44881 277.349 12.9537C277.349 18.5018 273.129 21.5571 265.465 21.5571H258.08V4.41644H258.078ZM329.808 0.275908H327.246L305.054 47.388H309.81L317.282 31.4928H339.769L347.241 47.388H352L329.808 0.275908ZM337.99 27.688H319.063L328.494 7.50371L337.99 27.688Z" fill="#1A1A1A"/>
</g>
<defs>
<clipPath id="clip0_73_183">
<rect width="352" height="48" fill="white"/>
</clipPath>
</defs>
</svg>
