<svg width="246" height="48" viewBox="0 0 246 48" fill="none" xmlns="http://www.w3.org/2000/svg">
<path fill-rule="evenodd" clip-rule="evenodd" d="M238.714 36.5522C238.23 36.5431 237.749 36.6305 237.3 36.8093C236.85 36.988 236.441 37.2545 236.096 37.5933C235.75 37.932 235.476 38.3361 235.289 38.7819C235.102 39.2278 235.005 39.7065 235.005 40.1901C235.005 40.6736 235.102 41.1523 235.289 41.5982C235.476 42.0441 235.75 42.4482 236.096 42.7869C236.441 43.1256 236.85 43.3921 237.3 43.5709C237.749 43.7497 238.23 43.8371 238.714 43.828C239.192 43.8275 239.665 43.7327 240.106 43.5491C240.547 43.3654 240.948 43.0966 241.285 42.7578C241.623 42.4191 241.89 42.0172 242.071 41.5752C242.253 41.1331 242.345 40.6596 242.343 40.1818C242.344 39.7052 242.25 39.2332 242.067 38.7929C241.885 38.3525 241.618 37.9524 241.281 37.6153C240.944 37.2783 240.543 37.0109 240.103 36.8285C239.662 36.646 239.19 36.5522 238.714 36.5522ZM238.714 43.3904C238.292 43.3909 237.875 43.3082 237.486 43.147C237.097 42.9858 236.743 42.7494 236.446 42.4512C236.148 42.153 235.913 41.7991 235.753 41.4096C235.592 41.0201 235.511 40.6029 235.513 40.1818C235.513 39.7621 235.596 39.3465 235.757 38.9589C235.918 38.5712 236.154 38.2192 236.451 37.9228C236.748 37.6264 237.101 37.3916 237.489 37.2317C237.878 37.0718 238.294 36.99 238.714 36.991C239.133 36.991 239.548 37.0736 239.935 37.2339C240.322 37.3943 240.674 37.6293 240.97 37.9257C241.267 38.222 241.502 38.5737 241.662 38.9608C241.822 39.3479 241.904 39.7628 241.904 40.1818C241.906 40.6021 241.825 41.0187 241.666 41.4076C241.507 41.7966 241.272 42.1502 240.975 42.4483C240.679 42.7464 240.327 42.9831 239.938 43.1448C239.55 43.3064 239.134 43.3899 238.714 43.3904Z" fill="#1A1A1A"/>
<path fill-rule="evenodd" clip-rule="evenodd" d="M240.581 39.2288C240.581 38.8856 240.429 38.5246 240.125 38.3523C239.819 38.1712 239.477 38.1533 239.134 38.1533H237.361V42.2193H237.857V40.3438H238.773L239.934 42.2193H240.525L239.296 40.3438C240.021 40.3234 240.581 40.0287 240.581 39.2288ZM238.619 39.9522H237.856V38.5144H239.018C239.523 38.5144 240.077 38.5909 240.077 39.2199C240.078 40.0479 239.19 39.9522 238.619 39.9522ZM217.38 19.5714L224.821 11.6295C225.253 11.0465 225.467 10.6383 225.467 10.2887C225.467 9.70566 224.965 9.47219 223.388 9.47219H221.511V4.45832H241.832V9.47219H239.162C236.078 9.47219 235.505 9.93785 231.203 15.36L219.431 28.0669V35.8212C219.431 37.805 220.433 38.5029 223.302 38.5029H227.747V43.3407H199.284V38.5029H203.728C206.594 38.5029 207.599 37.805 207.599 35.8212V28.0669L193.734 12.7357C191.443 10.0552 191.76 9.47219 185.381 9.47219V4.45832H211.121V9.47219H209.289C207.424 9.47219 206.634 9.82175 206.634 10.5209C206.634 11.1052 207.207 11.5709 207.566 12.0365L214.58 19.6785C215.414 20.5448 216.431 20.6571 217.38 19.5714ZM44.6747 4.45704H50.8839V18.4474H45.1495C44.6415 15.6509 42.8904 14.5626 41.2938 13.0954C38.4132 10.4494 32.1746 8.24614 26.9277 8.24614C20.1556 8.24614 14.4403 10.3461 14.4403 13.4335C14.4403 22.0043 53.1698 15.1839 53.1698 31.389C53.1698 39.8412 44.8738 44.5629 29.9755 44.5629C24.818 44.5629 17.0134 42.9631 12.4085 40.5186C10.965 39.6855 10.3523 41.3071 10.0818 43.3394H3.71555V28.8821H9.47423C10.7442 32.5551 12.494 33.3117 14.1034 34.7699C16.8959 37.3355 23.5429 39.202 29.6386 39.142C38.8292 39.0515 41.9894 37.0434 41.9894 34.1282C41.9894 31.2143 38.8637 30.5139 28.7924 28.9408L20.2411 27.5413C10.591 26.083 3.56494 23.9269 3.56494 16.2326C3.56494 8.24614 12.4531 3.23227 26.5065 3.23227C32.4286 3.23227 37.3832 4.02327 42.1387 6.71009C43.4558 7.56615 44.6913 7.66821 44.6747 4.45704ZM165.852 27.8806L165.975 12.3312C165.975 10.2912 164.913 9.5921 161.879 9.5921H158.314V4.75429H180.994V9.5921H178.038C175.002 9.5921 173.94 10.2925 173.94 12.3312V43.6354L165.063 43.5652L136.316 16.3538V36.1159C136.316 38.0984 137.378 38.855 140.412 38.855H144.358V43.6354H120.804V38.855H124.707C127.74 38.855 128.802 38.0972 128.802 36.1159V12.3312C128.802 10.2912 127.74 9.5921 124.707 9.5921H120.804V4.75429H141.168L165.852 27.8806ZM89.8827 2.93884C71.8077 2.93884 60.4932 10.9266 60.4932 23.7496C60.4932 36.343 71.6507 44.2695 89.3313 44.2695C108.111 44.2695 119.035 36.4591 119.035 23.1091C119.036 11.1014 107.248 2.93884 89.8827 2.93884ZM89.4717 39.1995C79.4668 39.1995 73.7157 33.4278 73.7157 23.4587C73.7157 13.7244 79.7169 7.95271 89.972 7.95271C99.8098 7.95271 105.561 13.8418 105.561 23.8682C105.561 33.6612 99.7255 39.1995 89.4717 39.1995Z" fill="#1A1A1A"/>
</svg>
