<svg width="198" height="48" viewBox="0 0 198 48" fill="none" xmlns="http://www.w3.org/2000/svg">
<path d="M179.358 15.0578L178.988 15.1808C177.549 12.0561 175.493 9.56872 172.821 7.71862C170.19 5.86848 166.881 4.94341 162.893 4.94341C160.673 4.94341 158.556 5.41619 156.542 6.36177C154.528 7.26633 152.76 8.56142 151.239 10.247C149.759 11.8916 148.567 13.8856 147.662 16.2291C146.758 18.5726 146.306 21.1628 146.306 23.9996C146.306 26.8364 146.758 29.4266 147.662 31.7701C148.567 34.1135 149.759 36.1281 151.239 37.8138C152.76 39.4583 154.528 40.7328 156.542 41.6374C158.556 42.5418 160.673 42.994 162.893 42.994C166.84 42.994 170.046 42.3773 172.513 41.1439C175.021 39.8695 177.138 37.9371 178.864 35.347L179.235 35.4699L179.112 39.4169C178.166 40.4036 177.077 41.2875 175.843 42.0686C174.61 42.8087 173.274 43.4459 171.835 43.9804C170.438 44.4738 168.978 44.8438 167.457 45.0905C165.936 45.3785 164.415 45.5226 162.894 45.5226C159.729 45.5226 156.707 45.0086 153.829 43.9808C150.952 42.9529 148.423 41.5139 146.245 39.6638C144.066 37.7726 142.339 35.5114 141.065 32.8801C139.79 30.2077 139.153 27.2475 139.153 23.9995C139.153 20.7515 139.79 17.8119 141.065 15.1807C142.339 12.5083 144.066 10.2264 146.245 8.33526C148.423 6.44401 150.952 5.00502 153.829 4.0183C156.707 2.99043 159.729 2.47649 162.894 2.47649C164.415 2.47649 165.936 2.59983 167.457 2.84651C168.978 3.0932 170.438 3.48379 171.835 4.0183C173.274 4.51166 174.61 5.14894 175.843 5.93013C177.077 6.67017 178.166 7.53355 179.112 8.52027L179.358 15.0578ZM43.4737 26.837C43.0217 27.0423 42.5901 27.3097 42.1787 27.6391C41.7674 27.9677 41.5617 28.42 41.5617 28.9959V36.5813C39.5885 39.4182 37.0602 41.6178 33.977 43.1801C30.8938 44.7424 27.4817 45.5236 23.7407 45.5236C20.5753 45.5236 17.5538 45.0096 14.6761 43.9818C11.7984 42.9539 9.27019 41.515 7.09136 39.6649C4.91257 37.7736 3.18595 35.5124 1.91153 32.8811C0.637176 30.2088 0 27.2486 0 24.0005C0 20.7525 0.637176 17.8129 1.91153 15.1817C3.18595 12.5093 4.91257 10.2275 7.09136 8.33627C9.27019 6.44502 11.7984 5.00605 14.6761 4.01936C17.5537 2.99146 20.5753 2.4775 23.7407 2.4775C25.2618 2.4775 26.7828 2.60084 28.3039 2.84753C29.8249 3.09421 31.2843 3.4848 32.6821 4.01931C34.1209 4.51267 35.4569 5.14995 36.6902 5.93114C37.9235 6.67118 39.0129 7.53456 39.9585 8.52128L40.2056 15.0583L39.8356 15.1812C38.3967 12.0565 36.3413 9.56915 33.6692 7.71904C31.0381 5.8689 27.7288 4.94383 23.7412 4.94383C21.5213 4.94383 19.4041 5.41664 17.3898 6.36224C15.3754 7.26678 13.6077 8.56185 12.0866 10.2475C10.6066 11.892 9.4145 13.8861 8.51016 16.2296C7.60569 18.573 7.15345 21.1632 7.15345 24.0001C7.15345 26.7957 7.58511 29.3653 8.44844 31.7088C9.35288 34.0523 10.5451 36.0669 12.025 37.7526C13.546 39.3971 15.3137 40.6922 17.3281 41.6378C19.3425 42.5423 21.4802 42.9945 23.7412 42.9945C28.0166 42.9945 31.6754 42.1723 34.7175 40.5278V28.9953C34.7175 28.42 34.4915 27.9677 34.0395 27.6385C33.6282 27.3099 33.2171 27.0425 32.8061 26.8365L32.8625 26.5285C33.0678 26.5661 33.4378 26.6071 33.9725 26.6514C34.5072 26.689 35.0622 26.73 35.6375 26.7743H40.9409C41.4342 26.7367 41.907 26.6957 42.3592 26.6514C42.8112 26.6138 43.1605 26.5728 43.4072 26.5285L43.4737 26.837ZM88.1379 3.77215C87.7265 3.97747 87.3154 4.24483 86.9046 4.57424C86.4933 4.9029 86.2673 5.5196 86.2267 6.42434C86.1891 7.41106 86.1481 8.66504 86.1038 10.1863C86.1038 11.6664 86.085 13.352 86.0474 15.2432C86.0474 17.1345 86.0286 19.1902 85.991 21.4103V28.3175C85.9534 30.9898 85.6244 33.2716 85.004 35.1629C84.3873 37.054 83.5651 38.6369 82.5374 39.9114C81.5508 41.186 80.4409 42.1933 79.2076 42.9333C78.0154 43.6734 76.8232 44.2284 75.631 44.5984C74.4799 45.0098 73.3905 45.2565 72.3629 45.3385C71.3351 45.4618 70.5334 45.5235 69.9579 45.5235C67.6147 45.5235 65.3536 45.2151 63.1748 44.5984C60.996 44.0231 59.0844 43.0775 57.44 41.7615C55.7956 40.4459 54.4802 38.7397 53.4936 36.6429C52.5069 34.5461 52.0136 31.9971 52.0136 28.9958V22.027V15.6132C52.0136 13.6397 51.9948 11.8718 51.9572 10.3096C51.9572 8.7061 51.9384 7.41101 51.9008 6.42429C51.8632 5.51976 51.6372 4.90305 51.2229 4.57418C50.8115 4.24552 50.4004 3.97816 49.9896 3.7721L50.046 3.46412C50.2513 3.50172 50.5803 3.54269 51.033 3.58704C51.5263 3.62464 52.0197 3.66561 52.513 3.70995C53.0476 3.70995 53.5615 3.72875 54.0546 3.76635H56.2745C56.7678 3.72875 57.2817 3.70995 57.8161 3.70995C58.3507 3.67235 58.8441 3.63138 59.296 3.58704C59.7893 3.54943 60.1386 3.50846 60.3439 3.46412L60.4003 3.7721C59.9484 3.97742 59.5167 4.24478 59.1054 4.57418C58.7354 4.90284 58.5298 5.51954 58.4884 6.42429C58.4508 7.41101 58.4098 8.7061 58.3655 10.3096V28.9957C58.3655 33.4771 59.4137 36.7868 61.5103 38.9247C63.6069 41.0626 66.7107 42.1315 70.8216 42.1315C72.0138 42.1315 73.3704 41.9875 74.8915 41.6994C76.4126 41.3708 77.8309 40.713 79.1463 39.726C80.5029 38.7393 81.6335 37.3414 82.5379 35.5325C83.4834 33.7234 83.9562 31.3183 83.9562 28.317C83.9562 25.069 83.9374 22.2939 83.8998 19.9915C83.8998 17.648 83.881 15.654 83.8434 14.0094C83.8434 12.3238 83.8246 10.8848 83.787 9.69248C83.7494 8.50023 83.7084 7.41073 83.664 6.42397C83.6264 5.51944 83.4004 4.90274 82.986 4.57386C82.5747 4.2452 82.1636 3.97783 81.7528 3.77173L81.8092 3.4638C82.2612 3.54574 82.775 3.6281 83.3508 3.71085C83.926 3.74846 84.4605 3.76726 84.9541 3.76726C85.406 3.76726 85.9199 3.74846 86.4956 3.71085C87.1123 3.62891 87.6467 3.54656 88.099 3.4638L88.1379 3.77215ZM132.884 15.0578L132.514 15.1808C131.075 12.0561 129.019 9.56872 126.347 7.71862C123.716 5.86848 120.407 4.94341 116.419 4.94341C114.199 4.94341 112.082 5.41619 110.068 6.36177C108.053 7.26633 106.286 8.56142 104.765 10.247C103.285 11.8916 102.092 13.8856 101.188 16.2291C100.284 18.5726 99.8315 21.1628 99.8315 23.9996C99.8315 26.8364 100.284 29.4265 101.188 31.7701C102.093 34.1135 103.285 36.1281 104.765 37.8138C106.286 39.4583 108.053 40.7328 110.068 41.6374C112.082 42.5418 114.199 42.994 116.419 42.994C120.366 42.994 123.572 42.3773 126.039 41.1439C128.547 39.8695 130.664 37.9371 132.39 35.347L132.76 35.4699L132.637 39.4169C131.692 40.4035 130.602 41.2874 129.369 42.0686C128.136 42.8086 126.8 43.4459 125.361 43.9804C123.963 44.4738 122.504 44.8438 120.983 45.0905C119.462 45.3785 117.941 45.5225 116.42 45.5225C113.254 45.5225 110.232 45.0086 107.355 43.9807C104.477 42.9528 101.949 41.5139 99.7701 39.6637C97.5913 37.7726 95.8647 35.5113 94.5904 32.88C93.3159 30.2077 92.6787 27.2475 92.6787 23.9995C92.6787 20.7515 93.3159 17.8119 94.5904 15.1806C95.8647 12.5082 97.5913 10.2264 99.7701 8.33521C101.949 6.44396 104.477 5.00497 107.355 4.01825C110.233 2.99038 113.254 2.47644 116.42 2.47644C117.941 2.47644 119.462 2.59978 120.983 2.84646C122.504 3.09314 123.963 3.48374 125.361 4.01825C126.8 4.51161 128.136 5.14888 129.369 5.93007C130.602 6.67012 131.692 7.5335 132.637 8.52022L132.884 15.0578ZM197.944 44.4747C197.738 44.4371 197.389 44.3961 196.896 44.3518C196.444 44.3518 195.95 44.333 195.416 44.2954C194.881 44.2954 194.367 44.2766 193.874 44.2389H190.175C189.681 44.2765 189.188 44.3175 188.695 44.3619C188.243 44.3995 187.893 44.4404 187.647 44.4848L187.59 44.2377C188.002 44.0323 188.413 43.765 188.824 43.4356C189.235 43.1069 189.461 42.4902 189.501 41.5855C189.539 40.5987 189.558 39.5709 189.558 38.502C189.595 37.433 189.614 36.2201 189.614 34.8633V30.2381V24.0094V17.7807V13.0937C189.614 11.737 189.595 10.5447 189.558 9.51679C189.558 8.44784 189.539 7.42 189.501 6.43328C189.464 5.52875 189.238 4.91205 188.824 4.58318C188.412 4.21315 188.001 3.92547 187.59 3.72011L187.647 3.47311C187.893 3.55506 188.243 3.61673 188.695 3.65812C189.188 3.65812 189.681 3.67692 190.175 3.71453C190.709 3.75213 191.223 3.77093 191.716 3.77093H193.874C194.367 3.73333 194.881 3.71453 195.416 3.71453C195.95 3.67692 196.444 3.63595 196.896 3.59161C197.389 3.55401 197.738 3.51304 197.944 3.4687L198 3.7158C197.548 3.92112 197.116 4.20879 196.705 4.57881C196.335 4.90747 196.129 5.52417 196.088 6.42892C196.05 7.41564 196.009 8.44347 195.965 9.51242V38.4976C196.003 39.5666 196.044 40.5944 196.088 41.5811C196.126 42.4856 196.331 43.1023 196.705 43.4312C197.116 43.7599 197.548 44.0272 198 44.2333L197.944 44.4747Z" fill="#1A1A1A"/>
</svg>
