<svg width="561" height="176" viewBox="0 0 561 176" fill="none" xmlns="http://www.w3.org/2000/svg">
<path d="M452.797 173.699V2.30078H560.141V24.5021H478.628V76.1518H554.401V98.238H478.628V151.498H560.945V173.699H452.797Z" fill="#1A1A1A"/>
<path d="M308.83 173.699V2.30078H371.629C383.722 2.30078 393.749 4.29468 401.709 8.28248C409.669 12.2703 415.6 17.6768 419.504 24.5021C423.484 31.2507 425.474 38.8428 425.474 47.2786C425.474 54.4106 424.134 60.4306 421.455 65.3387C418.853 70.2467 415.371 74.1579 411.008 77.072C406.645 79.9862 401.824 82.1335 396.542 83.5139V85.1243C402.283 85.4311 407.87 87.2716 413.304 90.6459C418.738 94.0202 423.216 98.8132 426.737 105.025C430.334 111.16 432.132 118.676 432.132 127.571C432.132 136.314 430.066 144.174 425.933 151.153C421.876 158.055 415.6 163.538 407.105 167.603C398.609 171.667 387.702 173.699 374.385 173.699H308.83ZM334.662 151.613H371.859C384.258 151.613 393.136 149.198 398.494 144.366C403.852 139.535 406.531 133.515 406.531 126.306C406.531 120.861 405.153 115.915 402.398 111.467C399.719 106.942 395.854 103.338 390.802 100.654C385.751 97.9696 379.781 96.6276 372.892 96.6276H334.662V151.613ZM334.662 76.4969H369.333C375.074 76.4969 380.278 75.3849 384.947 73.1609C389.616 70.9369 393.29 67.7927 395.968 63.7282C398.724 59.5871 400.101 54.794 400.101 49.3491C400.101 42.2938 397.614 36.3888 392.639 31.6341C387.741 26.8027 380.202 24.3871 370.022 24.3871H334.662V76.4969Z" fill="#1A1A1A"/>
<path d="M209.636 176C194.941 176 181.777 172.472 170.143 165.417C158.509 158.362 149.325 148.277 142.589 135.163C135.854 121.973 132.486 106.29 132.486 88.115C132.486 69.7865 135.854 54.0654 142.589 40.9516C149.325 27.7612 158.509 17.6383 170.143 10.583C181.777 3.52767 194.941 0 209.636 0C224.485 0 237.688 3.52767 249.245 10.583C260.802 17.6383 269.91 27.7612 276.569 40.9516C283.304 54.0654 286.672 69.7865 286.672 88.115C286.672 106.367 283.304 122.05 276.569 135.163C269.91 148.277 260.802 158.362 249.245 165.417C237.688 172.472 224.485 176 209.636 176ZM209.636 152.418C219.51 152.418 228.312 149.964 236.042 145.056C243.772 140.148 249.857 132.901 254.296 123.315C258.812 113.729 261.07 101.996 261.07 88.115C261.07 74.1577 258.812 62.3861 254.296 52.8C249.857 43.1373 243.772 35.8519 236.042 30.9438C228.312 26.0357 219.51 23.5817 209.636 23.5817C199.84 23.5817 191.038 26.0357 183.231 30.9438C175.501 35.8519 169.378 43.1373 164.862 52.8C160.346 62.3861 158.088 74.1577 158.088 88.115C158.088 101.996 160.346 113.729 164.862 123.315C169.378 132.901 175.501 140.148 183.231 145.056C191.038 149.964 199.84 152.418 209.636 152.418Z" fill="#1A1A1A"/>
<path d="M0 173.699V2.30078H25.8315V84.204H27.898L99.767 2.30078H132.028L63.1437 79.3727L132.372 173.699H101.259L45.9227 97.2027L25.8315 120.554V173.699H0Z" fill="#1A1A1A"/>
</svg>
