<svg width="734" height="176" viewBox="0 0 734 176" fill="none" xmlns="http://www.w3.org/2000/svg">
<path d="M610.697 173.699V2.30078H673.497C685.59 2.30078 695.616 4.29468 703.576 8.28248C711.536 12.2703 717.467 17.6768 721.371 24.5021C725.351 31.2507 727.341 38.8428 727.341 47.2786C727.341 54.4106 726.001 60.4306 723.323 65.3387C720.72 70.2467 717.238 74.1579 712.875 77.072C708.513 79.9862 703.691 82.1335 698.41 83.5139V85.1243C704.15 85.4311 709.737 87.2716 715.171 90.6459C720.606 94.0202 725.083 98.8132 728.604 105.025C732.201 111.16 734 118.676 734 127.571C734 136.314 731.933 144.174 727.8 151.153C723.744 158.055 717.467 163.538 708.972 167.603C700.476 171.667 689.569 173.699 676.252 173.699H610.697ZM636.529 151.613H673.726C686.125 151.613 695.004 149.198 700.361 144.366C705.719 139.535 708.398 133.515 708.398 126.306C708.398 120.861 707.02 115.915 704.265 111.467C701.586 106.942 697.721 103.338 692.669 100.654C687.618 97.9696 681.648 96.6276 674.759 96.6276H636.529V151.613ZM636.529 76.4969H671.2C676.941 76.4969 682.145 75.3849 686.814 73.1609C691.483 70.9369 695.157 67.7927 697.836 63.7282C700.591 59.5871 701.969 54.794 701.969 49.3491C701.969 42.2938 699.481 36.3888 694.506 31.6341C689.608 26.8027 682.069 24.3871 671.889 24.3871H636.529V76.4969Z" fill="#1A1A1A"/>
<path d="M511.506 176C496.81 176 483.646 172.472 472.012 165.417C460.378 158.362 451.194 148.277 444.458 135.163C437.723 121.973 434.355 106.29 434.355 88.115C434.355 69.7865 437.723 54.0654 444.458 40.9516C451.194 27.7612 460.378 17.6383 472.012 10.583C483.646 3.52767 496.81 0 511.506 0C526.354 0 539.557 3.52767 551.114 10.583C562.671 17.6383 571.779 27.7612 578.438 40.9516C585.173 54.0654 588.541 69.7865 588.541 88.115C588.541 106.367 585.173 122.05 578.438 135.163C571.779 148.277 562.671 158.362 551.114 165.417C539.557 172.472 526.354 176 511.506 176ZM511.506 152.418C521.379 152.418 530.181 149.964 537.911 145.056C545.641 140.148 551.726 132.901 556.165 123.315C560.681 113.729 562.939 101.996 562.939 88.115C562.939 74.1577 560.681 62.3861 556.165 52.8C551.726 43.1373 545.641 35.8519 537.911 30.9438C530.181 26.0357 521.379 23.5817 511.506 23.5817C501.709 23.5817 492.907 26.0357 485.1 30.9438C477.37 35.8519 471.247 43.1373 466.731 52.8C462.215 62.3861 459.957 74.1577 459.957 88.115C459.957 101.996 462.215 113.729 466.731 123.315C471.247 132.901 477.37 140.148 485.1 145.056C492.907 149.964 501.709 152.418 511.506 152.418Z" fill="#1A1A1A"/>
<path d="M348.249 176C333.553 176 320.389 172.472 308.755 165.417C297.121 158.362 287.975 148.277 281.316 135.163C274.658 121.973 271.328 106.29 271.328 88.115C271.328 69.7865 274.658 54.0654 281.316 40.9516C288.052 27.7612 297.198 17.6383 308.755 10.583C320.389 3.52767 333.553 0 348.249 0C357.28 0 365.737 1.3037 373.621 3.91111C381.581 6.51852 388.699 10.3146 394.975 15.2993C401.251 20.2841 406.417 26.3808 410.474 33.5895C414.607 40.7983 417.362 48.9656 418.74 58.0915H392.794C391.799 52.4932 389.923 47.5852 387.168 43.3673C384.489 39.0728 381.16 35.4684 377.18 32.5542C373.276 29.5634 368.876 27.3394 363.977 25.8824C359.155 24.3486 354.027 23.5817 348.593 23.5817C338.796 23.5817 329.956 26.0741 322.073 31.0588C314.266 35.9669 308.105 43.2523 303.589 52.915C299.15 62.5011 296.93 74.2344 296.93 88.115C296.93 102.072 299.188 113.844 303.704 123.43C308.219 132.939 314.381 140.148 322.187 145.056C329.994 149.964 338.758 152.418 348.478 152.418C353.912 152.418 359.04 151.69 363.862 150.233C368.684 148.776 373.085 146.59 377.065 143.676C381.045 140.762 384.374 137.234 387.053 133.093C389.809 128.875 391.722 124.005 392.794 118.484H418.74C417.439 126.996 414.798 134.78 410.818 141.835C406.838 148.814 401.749 154.872 395.549 160.01C389.349 165.072 382.27 169.021 374.31 171.859C366.35 174.62 357.663 176 348.249 176Z" fill="#1A1A1A"/>
<path d="M145.156 173.699H117.717L179.253 2.30078H209.103L270.525 173.699H243.201L194.752 33.4746H193.374L145.156 173.699ZM149.748 106.635H238.493V128.262H149.748V106.635Z" fill="#1A1A1A"/>
<path d="M51.8186 176C42.0983 176 33.373 174.275 25.6427 170.824C17.9123 167.296 11.7893 162.158 7.27359 155.409C2.75786 148.661 0.5 140.455 0.5 130.792V127.456H26.1019V130.792C26.1019 135.47 27.1734 139.573 29.3165 143.101C31.5361 146.628 34.5593 149.351 38.3862 151.268C42.2896 153.109 46.7671 154.029 51.8186 154.029C57.2528 154.029 61.8833 152.879 65.7102 150.578C69.5371 148.277 72.4455 144.903 74.4355 140.455C76.4255 135.93 77.4205 130.409 77.4205 123.89V2.30078H103.022V123.89C103.022 134.857 100.918 144.251 96.708 152.073C92.575 159.819 86.6816 165.762 79.0278 169.903C71.374 173.968 62.3043 176 51.8186 176Z" fill="#1A1A1A"/>
</svg>
